# xmcd
#
# Track frame offsets:
# 150
# 11225
# 28642
# 39785
# 51200
# 63242
# 78080
# 91277
# 103177
# 115420
# 123595
# 138045
# 151647
# 164050
# 175905
# 188807
# 202355
# 214562
# 223967
# 237217
#
# Disc length: 3342 seconds
#
#
# Revision: 0
# Processed by: cddbd v1.5.1PL0 Copyright (c) Steve Scherf et al.
# Submitted via: FreeRIP 2.70 
#
DISCID=170d0c14
DTITLE=Alvarenga and Ranchinho - Raizes Sertanejas
DYEAR=1952
DGENRE=Oldies
TTITLE0=GABRIELA
TTITLE1=DRAMA DE ANGÉLICA
TTITLE2=ROMANCE DE UMA CAVEIRA
TTITLE3=MISTER ECO
TTITLE4=TUDO TA SUBINDO
TTITLE5=O DIVÓRCIO VEM AI
TTITLE6=EH! SÃO PAULO
TTITLE7=VALSA DO ASSOBIO
TTITLE8=ADEUS MARIAZINHA
TTITLE9=CUMPADRE COMO É QUE TÁ TU?
TTITLE10=AQUELA FLOR
TTITLE11=FOGO NO CANAVIAR
TTITLE12=LIGA DOS BICHOS
TTITLE13=VOCÊ JÁ VIU O CRUZEIRO?
TTITLE14=TICO-TICO NO FUBÁ
TTITLE15=DANÇA DO CHEGADINHO
TTITLE16=ITÁLIA-ABISSÍNIA
TTITLE17=HISTÓRIA DE UM SOLDADO
TTITLE18=VAMOS ARRASTÁ O PÉ
TTITLE19=NÓIS EM BUENOS AIRES
EXTD=
EXTT0=
EXTT1=
EXTT2=
EXTT3=
EXTT4=
EXTT5=
EXTT6=
EXTT7=
EXTT8=
EXTT9=
EXTT10=
EXTT11=
EXTT12=
EXTT13=
EXTT14=
EXTT15=
EXTT16=
EXTT17=
EXTT18=
EXTT19=
PLAYORDER=
